# xmcd
#
# Track frame offsets:
#	150
#	14187
#	24620
#	41612
#	59862
#	72880
#	83572
#	95455
#
# Disc length: 1420 seconds
#
# Revision: 0
# Processed by: cddbd v1.5.1PL0 Copyright (c) Steve Scherf et al.
# Submitted via: audiograbber 1.83.01
#
DISCID=6b058a08
DTITLE=var - Jim Beam Definitive tracks
DYEAR=1999
DGENRE=road music
TTITLE0=Wilson Pickett - Mustang Sally
TTITLE1=Otis Redding - Hard to handle
TTITLE2=Curtis Mayfield - Move on up
TTITLE3=Detroit Spinners - Working my way back to you
TTITLE4=Booker T and the MGs - Green Onions
TTITLE5=Arthur Conley - Sweet Soul Music
TTITLE6=Sam and Dave - Soul Man
TTITLE7=The Rascals  - Groovin
EXTD=
EXTT0=
EXTT1=
EXTT2=
EXTT3=
EXTT4=
EXTT5=
EXTT6=
EXTT7=
PLAYORDER=
